<svg xmlns="http://www.w3.org/2000/svg" xmlns:xlink="http://www.w3.org/1999/xlink" viewBox="0 0 291.05 383.53"><defs><style>.cls-1{fill:#231f20;}.cls-2{fill:url(#linear-gradient);}</style><linearGradient id="linear-gradient" x1="145.56" y1="189.09" x2="145.26" y2="-101.97" gradientUnits="userSpaceOnUse"><stop offset="0" stop-color="#ed1c24"/><stop offset="0.23" stop-color="#eb1c25" stop-opacity="0.99"/><stop offset="0.36" stop-color="#e31e2a" stop-opacity="0.95"/><stop offset="0.48" stop-color="#d72031" stop-opacity="0.89"/><stop offset="0.58" stop-color="#c5233b" stop-opacity="0.81"/><stop offset="0.68" stop-color="#ae2748" stop-opacity="0.69"/><stop offset="0.77" stop-color="#922c59" stop-opacity="0.55"/><stop offset="0.85" stop-color="#71326c" stop-opacity="0.39"/><stop offset="0.93" stop-color="#4b3982" stop-opacity="0.21"/><stop offset="1" stop-color="#21409a" stop-opacity="0"/></linearGradient></defs><title>Logo</title><g id="Layer_2" data-name="Layer 2"><g id="Layer_1-2" data-name="Layer 1"><rect class="cls-1" x="-46.24" y="188.38" width="383.53" height="6.77" transform="translate(-46.24 337.29) rotate(-90)"/><path class="cls-2" d="M234.56,159a10,10,0,0,0,7.07,17.07H289a145.65,145.65,0,0,1-187.5,114.38v-107h-20v99A145.58,145.58,0,0,1,81.52,21V121.43h20V12.94a145.66,145.66,0,0,1,187.21,112.7h-47.1a10,10,0,0,0,0,20h49.29q.13,3,.13,6.05c0,1.46,0,2.92-.07,4.37H241.63A10,10,0,0,0,234.56,159Z"/></g></g></svg>
