<svg xmlns="http://www.w3.org/2000/svg" xmlns:xlink="http://www.w3.org/1999/xlink" viewBox="0 0 291.05 383.53"><defs><style>.cls-1{fill:#231f20;}.cls-2{fill:url(#linear-gradient);}</style><linearGradient id="linear-gradient" x1="162.19" y1="276.35" x2="123.46" y2="-12.16" gradientUnits="userSpaceOnUse"><stop offset="0" stop-color="#ed1c24"/><stop offset="0.38" stop-color="#eb1c25" stop-opacity="0.99"/><stop offset="0.51" stop-color="#e61d28" stop-opacity="0.96"/><stop offset="0.61" stop-color="#db1f2e" stop-opacity="0.91"/><stop offset="0.69" stop-color="#cd2237" stop-opacity="0.84"/><stop offset="0.76" stop-color="#ba2542" stop-opacity="0.75"/><stop offset="0.82" stop-color="#a2294f" stop-opacity="0.63"/><stop offset="0.87" stop-color="#872e5f" stop-opacity="0.5"/><stop offset="0.92" stop-color="#663472" stop-opacity="0.34"/><stop offset="0.96" stop-color="#433a87" stop-opacity="0.17"/><stop offset="1" stop-color="#21409a" stop-opacity="0"/></linearGradient></defs><title>logo2</title><g id="Layer_2" data-name="Layer 2"><g id="Layer_1-2" data-name="Layer 1"><rect class="cls-1" x="-46.24" y="188.38" width="383.53" height="6.77" transform="translate(-46.24 337.29) rotate(-90)"/><path class="cls-2" d="M234.56,159a10,10,0,0,0,7.07,17.07H289a145.65,145.65,0,0,1-187.5,114.38v-107h-20v99A145.58,145.58,0,0,1,81.52,21V121.43h20V12.94a145.66,145.66,0,0,1,187.21,112.7h-47.1a10,10,0,0,0,0,20h49.29q.13,3,.13,6.05c0,1.46,0,2.92-.07,4.37H241.63A10,10,0,0,0,234.56,159Z"/></g></g></svg>
